<svg class="coffee" xmlns="http://www.w3.org/2000/svg" width="124" height="124" viewBox="0 0 24 24"><path d="M13 24H6c-2.564-3.483-5-9.782-5-16h17c0 6.167-2.5 12.625-5 16zm6.088-14a44.721 44.721 0 0 1-.192 2h1.707c-.321 1.635-1.463 3.331-2.756 4.677-.358 1.283-.772 2.439-1.153 3.229C19.847 18.453 22.681 13.517 23 10h-3.912zm-8.49-3.001c1.52-.352 2.555-1.276 2.466-2.399-.117-1.485-3.134-2.718-2.32-4.6-4.735 3.817 1.764 3.902-.146 6.999zM7.391 7c1.523-.29 1.832-1.067 1.832-1.533 0-1.045-2.279-2.002-1.528-3.795C4.047 4.766 8.69 4.76 7.391 7z"/></svg>
