<svg width="166" height="30" xmlns="http://www.w3.org/2000/svg" display="block" viewBox="0 0 400.000000 70.000000"><g fill-rule="evenodd"><path d="M284.78 29.32c-5.103 1.445-7.98 5.372-7.98 10.891 0 4.81 1.934 6.994 7.816 8.828 5.513 1.719 7.109 3.29 5.631 5.545-1.465 2.236-5.936 1.823-9.734-.898l-1.276-.914-.56.914c-3.565 5.82-3.593 6.207-.554 7.694 9.12 4.462 19.075 1.911 21.26-5.447 2.077-6.994-.393-11.034-8.32-13.615-3.991-1.299-5.066-1.996-5.057-3.28.019-2.631 3.862-3.495 7.333-1.65l1.857.987.823-1.612c.453-.888 1.173-2.237 1.602-3 1.202-2.141 1.047-2.369-2.39-3.504-3.863-1.277-7.958-1.645-10.451-.939M193.6 40.136c0 5.795.118 13.265.262 16.6l.263 6.064H212.8v-7.4l-5.2.14-5.2.14V29.6h-8.8v10.536m21.6 6.064v16.6h8.8V30.117l-3.06-.258c-1.684-.143-3.664-.259-4.4-.259h-1.34v16.6m19.763-16.301l-5.237.123-.262 7.489c-.144 4.119-.262 11.494-.263 16.389l-.001 8.9h9.2V50h9.2v-7.6h-9.2v-5.2h10v-7.6l-4.1.087a4260.3 4260.3 0 0 0-9.337.212M252.8 46.2v16.6H272v-7.6h-10.4V50h9.6v-7.6h-9.6v-5.2H272v-7.6h-19.2v16.6m48.4-12.8v3.8h7.2v25.6h8.8V37.2h6.766l.117-2.998.117-2.999 5.7 8.007 5.7 8.006V62.8h8.8V46.745l2.33-3.273c1.282-1.799 3.982-5.561 6-8.359 2.019-2.798 3.67-5.188 3.67-5.312 0-.123-2.369-.174-5.264-.113l-5.264.112-2.743 3.987c-1.509 2.193-2.891 4.135-3.072 4.316-.181.181-.833-.443-1.448-1.387s-2.011-2.931-3.102-4.416l-1.983-2.7H301.2v3.8M358 46.2v16.6h19.2v-7.6h-10.4V29.6H358v16.6m21.6 0v16.6h18.8v-7.6h-10V50h9.6v-7.6h-9.6v-5.2h10v-7.6h-18.8v16.6" fill="#2f3236" class="lifestyle" /><path d="M170.998 2.336c-2.035 1.241-6.365 6.246-9.487 10.966-3.611 5.461-7.923 13.067-14.114 24.898-3.385 6.467-3.272 6.325-4.75 6.029-1.043-.208-14.429 1.747-20.578 3.006-2.764.566-2.763.567-1.072-2.948 2.656-5.522 2.696-5.546 12.403-7.627 11.488-2.463 15.077-3.792 12.242-4.533-.463-.121-.843-.424-.845-.674-.001-.249-.517-.746-1.147-1.104-1.451-.825-1.933-2.982-.736-3.295 1.138-.297.431-1.047-1.038-1.1-.717-.026-.96-.129-.554-.234 3.202-.83-3.89-1.557-8.399-.861l-1.676.259 1.661-3.35c1.874-3.78 1.571-3.577 9.04-6.016 2.446-.798 6.057-1.596 8.8-1.943 10.32-1.309 13.197-2.253 10.352-3.397-.495-.199-.72-.375-.5-.391C161.625 9.943 157.355 8 156.159 8c-.747 0-1.359-.18-1.359-.4 0-.22-.36-.4-.8-.4-.44 0-.8-.18-.8-.4 0-.22.27-.4.6-.4.33 0 .6-.18.6-.4 0-.22-.18-.4-.4-.4-.22 0-.4-.18-.4-.4 0-1.596-1.643-2.119-5.557-1.77-2.113.188-7.803.37-12.643.403-4.84.034-9.191.085-9.669.114-1.143.07-3.331 1.931-3.331 2.834 0 .39-1.262 3.347-2.804 6.572-3.092 6.463-4.597 9.677-7.888 16.847-1.211 2.64-2.869 6.24-3.683 8a373.339 373.339 0 0 0-3.248 7.3c-1.496 3.47-1.907 4.1-2.673 4.1-.497 0-.904-.18-.904-.4 0-.22.27-.4.6-.4.831 0 .755-.7-.1-.928-.593-.159-.562-.231.2-.476 2.046-.657.191-3.018-2.541-3.233-.958-.075-6.469.654-12.246 1.621-5.777.968-10.58 1.682-10.674 1.588-.301-.301 3.086-6.734 4.129-7.841.692-.735 1.73-1.214 3.319-1.534 16.135-3.243 21.526-4.989 18.141-5.874-.425-.111-.695-.409-.6-.662.095-.254-.343-.754-.975-1.112-1.437-.815-1.941-3.004-.777-3.373 1.083-.344.472-.969-1-1.022-.702-.026-.971-.127-.598-.225.394-.104.585-.42.457-.754-.247-.643-4.651-.756-8.435-.218-1.155.165-2.1.238-2.1.162 0-.075.714-1.557 1.587-3.294l1.588-3.157 3.112-1.194c4.765-1.827 8.491-2.839 12.167-3.304 10.708-1.356 14.213-2.445 11.446-3.558-.495-.199-.72-.381-.5-.405.924-.1-3.312-1.972-4.5-1.989-.715-.01-1.3-.198-1.3-.418 0-.22-.349-.4-.776-.4-.427 0-.888-.18-1.024-.4-.136-.22.046-.4.403-.4.833 0 .458-1.339-.699-2.496-.761-.761-1.082-.794-4.661-.486-2.113.183-8.073.354-13.243.38-10.408.054-12.324.499-12.387 2.879-.007.262-1.023 2.602-2.257 5.2-3.243 6.827-6.91 14.672-9.173 19.623-1.639 3.588-2.317 5.039-2.453 5.25-.054.083-.551-.389-1.105-1.048-2.31-2.744-2.423-2.739-21.825.914-19.662 3.703-27.516 5.84-26.401 7.183.275.331.831.601 1.237.601.487 0 .662.201.513.59-.285.741.732 1.783 2.159 2.212.971.293.993.333.192.364-1.003.038-1.277 1.234-.283 1.234.654 0 1.177.357 3.022 2.064.633.585 1.468 1.001 1.856.925 1.862-.369 9.436-.501 8.305-.146-13.628 4.282-18.942 2.986-18.513-4.513 1.122-19.59 28.427-36.019 47.694-28.698 5.432 2.064 6.612 1.516 7.571-3.517.793-4.162-1.243-7.447-6.068-9.796L61 3.813l-6.2.05C34.205 4.028 19.122 12.269 7.326 29.8-.02 40.716.001 51.286 7.385 59.498c6.937 7.716 21.521 9.291 33.368 3.605C45.521 60.814 54.448 55 57.686 52.075l1.485-1.342-1.036 2.533c-3.008 7.353-3.496 9.366-2.168 8.945.621-.198.726-.089.553.573-.18.691-.025.816 1.015.816 1.273 0 3.265.729 3.265 1.195 0 .147.53.189 1.179.093.769-.112 1.579.113 2.33.648 1.405.999 3.184.205 4.278-1.912 1.157-2.235 4.154-3.18 19.013-5.993 5.83-1.104 11.213-2.131 11.962-2.282.969-.195 1.282-.143 1.082.18-1.593 2.578-2.537 7.041-1.428 6.751.662-.173.771-.068.573.553-.212.67-.037.767 1.384.767 1.06 0 1.89.263 2.38.753.511.511 1.101.687 1.831.548.726-.139 1.462.078 2.255.665.648.479 1.399.746 1.67.593 1.062-.601 2.393-2.004 2.732-2.881.673-1.744 6.362-3.374 21.284-6.099 5.685-1.038 5.378-1.286 3.664 2.964-1.181 2.93-1.33 3.623-.936 4.37.779 1.475 2.397 2.767 3.202 2.557.409-.107.832-.052.94.122.108.175.838.438 1.622.585.784.147 1.525.527 1.647.845.449 1.172 1.208.519 1.882-1.618 1.258-3.99 3.055-7.404 3.898-7.404.437 0 1.109-.56 1.56-1.3.436-.715.794-1.06.795-.767.002.957.758.306 2.092-1.803.72-1.139 2.408-3.659 3.751-5.6 1.343-1.942 2.824-4.279 3.29-5.195 1.199-2.353 10.161-9.019 11.234-8.356.185.114.827 2.325 1.429 4.914a359.81 359.81 0 0 0 1.827 7.518c.404 1.546.93 4.04 1.17 5.541.584 3.654 1.949 6.201 4.859 9.066 2.747 2.705 2.625 2.665 4.798 1.557l1.618-.825 1.217 1.425c.67.784 1.567 1.425 1.993 1.425.884 0 2.393.72 2.791 1.332.147.226.597.451 1 .499.403.048 1.285.313 1.961.589 1.777.725 3.258.223 3.91-1.327.3-.711 1.201-2.15 2.003-3.196.802-1.047 1.458-1.992 1.458-2.1 0-.109-2.25-.197-5-.197h-5v-8.157l-1.358 1.316-1.357 1.316-.474-2.938c-1.126-6.971-2.518-14.17-3.821-19.748-1.257-5.381-1.335-6.036-.768-6.453 1.179-.866 22.629-13.019 22.728-12.877.054.078.709 1.131 1.455 2.341 2.082 3.374 4.368 6.278 8.315 10.56 1.531 1.66 1.871 1.84 3.488 1.84H224v7.2c0 3.96.103 7.2.229 7.2s1.131-.855 2.233-1.9 2.259-2.044 2.571-2.22c.442-.249.567-1.42.567-5.3V30h10.459l3.47-3.291c21.347-20.24 20.152-18.637 16.448-22.066L257.554 2.4h-2.965c-4.43 0-6.361 1.012-10.765 5.641-6.768 7.113-13.883 13.911-14.353 13.711-1.442-.612-4.771-5.768-5.264-8.152-.885-4.275-4.403-9.053-7.306-9.922-1.895-.568-9.173-.574-10.229-.009-.549.293-.691.285-.497-.029.592-.957-1.105-.315-6.618 2.504l-14.483 7.403c-4.799 2.453-8.588 4.233-8.42 3.956.168-.276.962-1.523 1.764-2.771 3.042-4.725 2.796-7.793-.864-10.778-3.173-2.587-4.45-2.902-6.556-1.618M214 36.303c-.55.594-3.34 3.067-6.2 5.497l-5.2 4.417-.113 4.692-.112 4.691h4.631c4.63 0 6.594-.718 6.594-2.412 0-.162.36-.389.8-.504.692-.181 1.388-17.554.7-17.472-.055.007-.55.498-1.1 1.091" fill="#dc007f" class="geeky" /></g></svg>
